<?xml version="1.0" encoding="UTF-8"?>
<svg version="1.1" xmlns="http://www.w3.org/2000/svg" width="512" height="512">
<path d="M0 0 C1.24980652 -0.0061734 2.49961304 -0.0123468 3.78729248 -0.01870728 C27.09186636 -0.09273316 50.28922431 1.56606124 73.25 5.6875 C74.43021729 5.89656982 75.61043457 6.10563965 76.82641602 6.32104492 C117.42225089 13.81270103 165.47774427 28.77806592 191.63671875 63.1640625 C197.62260329 72.17535073 202.67265768 82.2680622 202.69672108 93.26435089 C202.70117892 94.21377264 202.70563676 95.1631944 202.71022969 96.14138651 C202.70995315 97.69374577 202.70995315 97.69374577 202.70967102 99.27746582 C202.71334771 100.38329183 202.7170244 101.48911784 202.7208125 102.62845373 C202.73184346 106.34149988 202.73569222 110.05451804 202.73950195 113.76757812 C202.74576709 116.42699347 202.75240132 119.08640583 202.75941467 121.74581909 C202.77915391 129.73199838 202.78924252 137.71817888 202.79814246 145.70437646 C202.80252993 149.46931557 202.80789559 153.23425328 202.81313133 156.99919128 C202.83014184 169.52205361 202.84463437 182.04491507 202.85188007 194.56778717 C202.85378983 197.81569927 202.85571018 201.06361136 202.85766602 204.31152344 C202.85814976 205.11873311 202.8586335 205.92594279 202.8591319 206.75761336 C202.86742614 219.82387355 202.89275358 232.89004201 202.92524669 245.95626217 C202.95836639 259.38442242 202.9763333 272.81253614 202.97952431 286.24073744 C202.98168498 293.77473103 202.99036831 301.30859089 203.01598549 308.84254456 C203.03775979 315.26098463 203.04571006 321.67925848 203.03601871 328.09773129 C203.03149318 331.3683051 203.03546784 334.63846711 203.05278015 337.90900803 C203.17909243 363.19408672 203.17909243 363.19408672 198.5625 373.4375 C198.12772496 374.40720985 197.69294992 375.37691971 197.24499989 376.37601471 C193.49852495 384.2721561 187.67592387 390.33914973 181.5625 396.4375 C180.78003906 397.2315625 179.99757813 398.025625 179.19140625 398.84375 C139.24438507 437.10666405 69.48590821 448.32284093 16.53125 448.67578125 C14.70441177 448.69040405 14.70441177 448.69040405 12.84066772 448.70532227 C8.91460292 448.730276 4.98862915 448.74375477 1.0625 448.75 C0.39352943 448.75129787 -0.27544113 448.75259575 -0.96468353 448.75393295 C-23.02051161 448.7863533 -44.63678365 447.9628085 -66.4375 444.4375 C-67.60635742 444.25558105 -68.77521484 444.07366211 -69.97949219 443.88623047 C-111.07763566 437.31827524 -153.91824617 423.91632472 -184.4375 394.4375 C-185.2109375 393.70144531 -185.984375 392.96539062 -186.78125 392.20703125 C-198.44027451 380.28847366 -203.75460335 365.69605751 -203.70492554 349.23677063 C-203.70945665 348.12838134 -203.71398776 347.01999206 -203.71865618 345.87801522 C-203.73128833 342.17424933 -203.72968054 338.47063071 -203.72802734 334.7668457 C-203.73401337 332.10698402 -203.74076283 329.44713375 -203.74838257 326.78727722 C-203.76496079 320.31761711 -203.77049069 313.84799346 -203.77160732 307.37831388 C-203.77255941 302.11592966 -203.7766777 296.85355741 -203.78300858 291.59117699 C-203.80061313 276.65248199 -203.8098488 261.71381567 -203.80834763 246.77511022 C-203.80826772 245.97058606 -203.8081878 245.16606189 -203.80810547 244.3371582 C-203.80802371 243.53164503 -203.80794195 242.72613186 -203.80785771 241.8962092 C-203.80704526 228.84953357 -203.82617444 215.80297352 -203.8543822 202.7563313 C-203.88315549 189.34162983 -203.89692002 175.92698465 -203.89519465 162.51225156 C-203.89453223 154.98837125 -203.8999592 147.46461207 -203.92155075 139.94075966 C-203.93982128 133.53336242 -203.94406207 127.12614121 -203.9305319 120.71872912 C-203.9240313 117.45421709 -203.92598065 114.19010985 -203.9412384 110.92561722 C-204.0515201 85.68732856 -204.0515201 85.68732856 -199.4375 75.4375 C-199.00274542 74.46772878 -198.56799084 73.49795755 -198.12006187 72.49879932 C-194.37617097 64.60905616 -188.5576414 58.5233669 -182.4375 52.4375 C-181.63183594 51.63183594 -180.82617188 50.82617188 -179.99609375 49.99609375 C-173.45042937 43.79550558 -166.15509885 39.01598375 -158.4375 34.4375 C-157.34308594 33.78007813 -156.24867188 33.12265625 -155.12109375 32.4453125 C-128.1562813 17.16831978 -96.83922273 9.24190661 -66.4375 4.4375 C-65.22046387 4.23995117 -64.00342773 4.04240234 -62.74951172 3.83886719 C-41.8796587 0.60204013 -21.10005202 0.04401093 0 0 Z M-55.4375 25.4375 C-57.03223145 25.6543042 -57.03223145 25.6543042 -58.65917969 25.87548828 C-95.32755694 31.01543623 -136.03298302 41.25048583 -164.4375 66.4375 C-165.15550781 67.07300781 -165.87351562 67.70851562 -166.61328125 68.36328125 C-173.38117845 74.72332024 -179.62019981 83.14271683 -180.84375 92.56640625 C-181.16057374 104.1700756 -177.75001588 111.87048506 -170.25 120.625 C-155.09254188 136.35964609 -135.15133654 146.77260308 -114.4375 153.4375 C-113.4475 153.4375 -112.4575 153.4375 -111.4375 153.4375 C-111.4375 152.7775 -111.4375 152.1175 -111.4375 151.4375 C-112.87108726 150.19846799 -112.87108726 150.19846799 -114.76171875 149.01171875 C-115.46103516 148.54443359 -116.16035156 148.07714844 -116.88085938 147.59570312 C-117.62142578 147.11037109 -118.36199219 146.62503906 -119.125 146.125 C-128.13198065 140.2088867 -135.39945893 134.22058999 -138.4375 123.4375 C-139.50682762 112.94316845 -138.26592608 104.08299876 -131.75 95.625 C-126.66896117 90.15609561 -119.94464468 86.75125037 -112.51953125 86.234375 C-99.80589775 86.05210068 -92.84842959 88.86117885 -83.4375 97.4375 C-82.95055664 98.02055908 -82.46361328 98.60361816 -81.96191406 99.2043457 C-77.81560534 103.98641355 -74.67466916 105.30151459 -68.40649414 105.91503906 C-67.42672607 105.98432617 -66.44695801 106.05361328 -65.4375 106.125 C-63.37296187 106.33534487 -61.30913579 106.55279938 -59.24609375 106.77734375 C-58.24819824 106.88288574 -57.25030273 106.98842773 -56.22216797 107.09716797 C-33.62310678 109.85914336 -11.87809683 121.99991813 4.03222656 137.91552734 C5.09631468 138.97384344 6.17788442 140.01475237 7.27246094 141.04150391 C11.88789626 145.4448375 15.36812562 150.20951611 18.8125 155.5625 C19.5859375 156.74005859 19.5859375 156.74005859 20.375 157.94140625 C20.87515625 158.70582031 21.3753125 159.47023437 21.890625 160.2578125 C22.60702148 161.34304199 22.60702148 161.34304199 23.33789062 162.45019531 C24.5625 164.4375 24.5625 164.4375 25.859375 167.4921875 C27.55638619 169.87346698 27.55638619 169.87346698 31.38671875 169.8515625 C33.11462455 169.75198945 34.8402657 169.60920404 36.5625 169.4375 C38.09318115 169.29006348 38.09318115 169.29006348 39.65478516 169.13964844 C43.23672116 168.74979907 46.80413338 168.29324684 50.375 167.8125 C51.02500977 167.7251358 51.67501953 167.63777161 52.34472656 167.54776001 C93.23772326 161.98280521 144.39223187 150.88930096 172.6875 117.96484375 C179.09609655 109.32658965 181.47560863 101.10782653 180.5625 90.4375 C178.75003187 82.90374692 174.61420941 77.17856848 169.5625 71.4375 C169.05074219 70.84324219 168.53898437 70.24898437 168.01171875 69.63671875 C145.98917885 45.86549082 109.09285431 35.74009265 78.5625 29.4375 C77.62792969 29.24317383 76.69335938 29.04884766 75.73046875 28.84863281 C69.03722677 27.49247027 62.3244321 26.39058817 55.5625 25.4375 C54.49580078 25.28651855 53.42910156 25.13553711 52.33007812 24.97998047 C16.93724926 20.23603131 -20.0849245 20.51252777 -55.4375 25.4375 Z M-116.4375 110.4375 C-118.28641818 112.87471033 -118.43320627 114.23998848 -118.5 117.3125 C-116.57681046 122.96893983 -112.00282938 125.55999372 -106.98828125 128.37109375 C-96.12475839 134.57902052 -91.51848822 141.75067926 -86.49560547 153.07177734 C-85.5072008 155.28166225 -84.46120515 157.44816136 -83.37890625 159.61328125 C-76.49498007 173.58411227 -74.51536603 187.17501613 -72.71069336 202.44848633 C-71.29528981 214.30769035 -69.2384883 225.82494229 -66.4375 237.4375 C-64.44527689 234.57309388 -64.44527689 234.57309388 -63.125 231.875 C-61.04949164 228.87704347 -59.98552909 228.22595091 -56.4375 227.4375 C-53.6078388 227.34167482 -51.08130766 227.39154031 -48.4375 228.4375 C-45.00872759 232.1278971 -43.47117507 235.55453872 -41.95703125 240.328125 C-41.51611938 241.6833743 -41.07460934 243.03842911 -40.63256836 244.39331055 C-40.40729462 245.09531586 -40.18202087 245.79732117 -39.94992065 246.52059937 C-28.47324495 282.05150665 -9.50911136 306.72309734 24 324 C24.83539307 324.41781738 25.67078613 324.83563477 26.53149414 325.26611328 C27.30356201 325.65395996 28.07562988 326.04180664 28.87109375 326.44140625 C29.56001709 326.77986572 30.24894043 327.1183252 30.95874023 327.46704102 C32.5625 328.4375 32.5625 328.4375 33.5625 330.4375 C34.49044483 339.16930873 34.49044483 339.16930873 31.6875 343 C27.70145655 345.69644116 24.29507757 345.99365657 19.5625 345.4375 C16.77026403 344.5158841 14.26456245 343.2184002 11.6875 341.8125 C10.98842529 341.44495605 10.28935059 341.07741211 9.5690918 340.69873047 C7.55590807 339.63058652 5.55775287 338.53869081 3.5625 337.4375 C2.17611328 336.68726563 2.17611328 336.68726563 0.76171875 335.921875 C-6.58817966 331.73568082 -14.43018272 326.44481728 -20.4375 320.4375 C-22.98785305 320.12246653 -25.52319919 319.8645854 -28.08203125 319.640625 C-29.71132782 319.48856704 -31.34055699 319.33578564 -32.96972656 319.18237305 C-33.8308606 319.10223969 -34.69199463 319.02210632 -35.57922363 318.93954468 C-84.89633954 314.2854236 -138.42296985 304.61518741 -177.546875 271.96875 C-179.36442527 270.38428334 -179.36442527 270.38428334 -181.4375 269.4375 C-181.53047745 280.59084133 -181.60140534 291.74408935 -181.64474869 302.89774036 C-181.66555897 308.07771885 -181.69375603 313.25743075 -181.73925781 318.43725586 C-181.78295044 323.44286887 -181.80668635 328.44822663 -181.81700897 333.45401573 C-181.8243585 335.35685935 -181.83870973 337.25969014 -181.86042023 339.16242409 C-182.04587011 356.10024645 -179.44463698 367.80246423 -167.4453125 380.5546875 C-150.4468453 396.52683215 -128.36228697 405.53517422 -106.4375 412.4375 C-105.22827881 412.82566895 -105.22827881 412.82566895 -103.99462891 413.22167969 C-85.91057532 418.92330537 -67.16753175 421.77306903 -48.4375 424.4375 C-47.3846582 424.58735352 -46.33181641 424.73720703 -45.24707031 424.89160156 C18.03047615 433.25574676 103.67598582 428.02596004 156.5625 388.4375 C157.51640625 387.72851562 158.4703125 387.01953125 159.453125 386.2890625 C169.56341843 378.41629303 177.75138248 369.21854979 180.5625 356.4375 C180.65218848 353.61540261 180.68872017 350.81877869 180.67602539 347.99707031 C180.67624443 346.7233532 180.67624443 346.7233532 180.6764679 345.42390442 C180.67577201 342.6211185 180.66799476 339.81839929 180.66015625 337.015625 C180.65829092 335.07078081 180.65686756 333.12593614 180.65586853 331.18109131 C180.65205242 326.06502991 180.64222984 320.94899695 180.63116455 315.83294678 C180.62093098 310.61129135 180.61636674 305.38963132 180.61132812 300.16796875 C180.60060678 289.92446668 180.5835412 279.68098571 180.5625 269.4375 C179.28137198 270.39577806 178.00059678 271.35452782 176.7199707 272.31347656 C176.0067012 272.84732971 175.2934317 273.38118286 174.55854797 273.93121338 C173.03994178 275.07720597 171.53756268 276.24473746 170.04296875 277.421875 C158.44267647 286.35429768 144.97411948 292.72317165 131.4453125 298.18359375 C128.59137134 299.31654739 128.59137134 299.31654739 126.38671875 300.9296875 C121.94099039 303.30320222 117.15412812 304.08644184 112.25 305.125 C110.70989258 305.46241211 110.70989258 305.46241211 109.13867188 305.80664062 C106.61491887 306.35834477 104.0896616 306.90166669 101.5625 307.4375 C102.86405261 310.41558198 104.05572135 312.10843927 106.6953125 313.99609375 C107.32945068 314.45838379 107.96358887 314.92067383 108.61694336 315.39697266 C109.30022705 315.88472168 109.98351074 316.3724707 110.6875 316.875 C116.73991755 321.30264942 122.67526378 325.83861105 128.5 330.5625 C129.19174316 331.1186499 129.88348633 331.6747998 130.59619141 332.24780273 C131.23347168 332.76673096 131.87075195 333.28565918 132.52734375 333.8203125 C133.0905835 334.27809082 133.65382324 334.73586914 134.23413086 335.20751953 C136.66654579 337.45977213 136.79840347 339.56682933 136.9375 342.75 C136.89021103 346.42080645 136.66003469 347.29980396 134.4375 350.4375 C131.18649027 352.69907198 129.51740344 353.4375 125.5625 353.4375 C119.97581247 351.45664324 115.95183286 348.6600345 111.4375 344.875 C110.11414401 343.79061292 108.78991019 342.70729632 107.46484375 341.625 C106.8085498 341.08617187 106.15225586 340.54734375 105.47607422 339.9921875 C102.69267043 337.73080509 99.85229543 335.54840778 97 333.375 C90.68618268 328.54655802 84.42839284 323.64950614 78.19189453 318.72167969 C76.64107405 317.49942681 75.08435896 316.28466413 73.52734375 315.0703125 C72.18349609 314.01457031 72.18349609 314.01457031 70.8125 312.9375 C70.03390625 312.3290625 69.2553125 311.720625 68.453125 311.09375 C66.5625 309.4375 66.5625 309.4375 64.5625 306.4375 C63.99217245 297.45484104 63.99217245 297.45484104 66.5625 294.4375 C71.7521414 291.92293149 76.8840771 290.48675423 82.5 289.25 C83.66885742 288.98413086 83.66885742 288.98413086 84.86132812 288.71289062 C86.76037954 288.2818176 88.66125878 287.85880992 90.5625 287.4375 C87.25068751 284.64057582 83.85759988 282.3441311 80.14501953 280.14111328 C56.55245683 266.08366415 42.43624668 246.89968886 30.5 222.5 C29.92701172 221.34048828 29.35402344 220.18097656 28.76367188 218.98632812 C24.46565632 210.28876908 24.46565632 210.28876908 22.67965698 206.62786865 C18.87849315 198.83720268 14.8739224 191.27575823 10.25 183.9375 C9.68804932 183.04168213 9.12609863 182.14586426 8.54711914 181.22290039 C-7.86711854 155.25991714 -26.22951546 136.41122267 -57.10498047 128.62573242 C-63.31230062 127.23644658 -69.5306066 126.91287356 -75.87963867 126.85229492 C-82.66274155 126.72231147 -87.7864666 125.26354687 -92.75390625 120.40625 C-93.84645173 119.25992977 -94.92841928 118.10344187 -96 116.9375 C-99.83792586 112.79162081 -103.0537236 109.55174599 -108.4375 107.4375 C-112.09101863 107.4375 -113.49776776 108.32692301 -116.4375 110.4375 Z M-181.4375 141.4375 C-181.5305928 152.29553012 -181.60146308 163.15346372 -181.64474869 174.01181316 C-181.66553419 179.05497626 -181.69368478 184.09786429 -181.73925781 189.14086914 C-181.78304035 194.01681496 -181.80670489 198.89249788 -181.81700897 203.76862526 C-181.82434262 205.61957748 -181.83866184 207.47051696 -181.86042023 209.32135582 C-182.02966015 224.32800277 -181.15609523 236.90591751 -170.4375 248.4375 C-169.48423828 249.52611328 -169.48423828 249.52611328 -168.51171875 250.63671875 C-142.7881362 278.39493495 -98.67476055 287.9512395 -62.9375 293.8125 C-61.4071814 294.06435059 -61.4071814 294.06435059 -59.84594727 294.32128906 C-53.97040222 295.22499386 -48.3812396 295.5971459 -42.4375 295.4375 C-43.00017578 294.42042969 -43.00017578 294.42042969 -43.57421875 293.3828125 C-47.009141 287.1359262 -50.29944498 280.83857684 -53.4375 274.4375 C-53.73914063 275.04335938 -54.04078125 275.64921875 -54.3515625 276.2734375 C-57.65023517 282.84705137 -57.65023517 282.84705137 -60.1875 284.75 C-64.38157342 286.03152243 -68.0131939 286.09100832 -72.01977539 284.25268555 C-74.95847127 282.04636384 -75.55702027 280.55057712 -76.68359375 277.08203125 C-77.22270386 275.45467041 -77.22270386 275.45467041 -77.77270508 273.79443359 C-78.1364624 272.62477051 -78.50021973 271.45510742 -78.875 270.25 C-79.45640747 268.43363037 -79.45640747 268.43363037 -80.04956055 266.58056641 C-87.90999273 241.59870747 -92.33389712 216.47813554 -95.48706055 190.51928711 C-95.59832275 189.61702393 -95.70958496 188.71476074 -95.82421875 187.78515625 C-95.91920654 186.99117432 -96.01419434 186.19719238 -96.11206055 185.37915039 C-96.35236427 183.36343072 -96.35236427 183.36343072 -97.4375 181.4375 C-99.95951508 180.46612163 -99.95951508 180.46612163 -103.0703125 179.625 C-104.25794189 179.27695313 -105.44557129 178.92890625 -106.66918945 178.5703125 C-107.30394196 178.38629883 -107.93869446 178.20228516 -108.59268188 178.01269531 C-134.15851073 170.54736397 -157.60536226 160.16011133 -178.4375 143.4375 C-179.4275 142.7775 -180.4175 142.1175 -181.4375 141.4375 Z M176.125 144.75 C152.07007464 166.28887928 117.37293771 176.70384729 86.5625 183.4375 C85.67643066 183.63182617 84.79036133 183.82615234 83.87744141 184.02636719 C69.5588191 187.09866473 55.1130882 188.86563808 40.5625 190.4375 C41.20698502 194.90568051 42.90558197 198.69196837 44.84375 202.72265625 C45.34231506 203.76805824 45.34231506 203.76805824 45.85095215 204.83457947 C46.55737162 206.30941843 47.26695811 207.7827441 47.97949219 209.25463867 C49.04433081 211.46233046 50.08891898 213.67882907 51.1328125 215.89648438 C55.43710316 224.90034157 60.18743535 232.70554769 66.5625 240.4375 C67.61594604 241.7354248 67.61594604 241.7354248 68.69067383 243.05957031 C77.87911015 253.85113048 89.80279377 261.12213409 101.86499023 268.2890625 C104.03098379 269.58098044 106.18220397 270.89551498 108.33398438 272.2109375 C109.72051627 273.04046463 111.10785666 273.86864223 112.49609375 274.6953125 C113.13260361 275.0878421 113.76911346 275.4803717 114.4249115 275.88479614 C117.20487311 277.5088159 119.03275848 278.47367909 122.29003906 278.2512207 C142.68590455 270.94788812 166.2711908 258.66963741 176.90625 238.9453125 C179.86737802 232.49428359 180.7079764 227.0989214 180.67602539 219.99707031 C180.67624443 218.7233532 180.67624443 218.7233532 180.6764679 217.42390442 C180.67577201 214.6211185 180.66799476 211.81839929 180.66015625 209.015625 C180.65829092 207.07078081 180.65686756 205.12593614 180.65586853 203.18109131 C180.65205242 198.06502991 180.64222984 192.94899695 180.63116455 187.83294678 C180.62093098 182.61129135 180.61636674 177.38963132 180.61132812 172.16796875 C180.60060678 161.92446668 180.5835412 151.68098571 180.5625 141.4375 C178.7079258 141.4375 177.37669058 143.53246862 176.125 144.75 Z " fill="#36464F" transform="translate(256.4375,31.5625)"/>
<path d="M0 0 C6.36387067 4.93798085 6.36387067 4.93798085 8.94824219 8.0324707 C13.09455091 12.81453855 16.23548709 14.12963959 22.50366211 14.74316406 C23.48343018 14.81245117 24.46319824 14.88173828 25.47265625 14.953125 C27.53719438 15.16346987 29.60102046 15.38092438 31.6640625 15.60546875 C33.16090576 15.76378174 33.16090576 15.76378174 34.68798828 15.92529297 C57.47486764 18.71022282 79.05761604 30.95727089 95.11230469 46.93310547 C96.25273606 48.05020425 97.43986665 49.11935403 98.63671875 50.17578125 C110.65002477 61.02730665 120.71004807 78.69153731 126.84375 93.59765625 C128.04619168 96.50275212 129.54007833 99.07472925 131.203125 101.7421875 C133.75666982 105.90754429 135.95027209 110.18211591 138.0234375 114.6015625 C138.48337601 115.5784201 138.48337601 115.5784201 138.9526062 116.57501221 C140.21602582 119.26740326 141.47367795 121.96219631 142.71459961 124.66503906 C147.0671378 134.11443269 151.85393778 142.16819025 158.47265625 150.265625 C159.10316895 151.05976807 159.73368164 151.85391113 160.38330078 152.67211914 C169.70773217 163.85545194 182.48164284 170.88536269 194.91015625 178.078125 C197.06241544 179.32875229 199.21331726 180.58156724 201.36158752 181.83903503 C202.68360778 182.61241279 204.00795751 183.38182816 205.33506775 184.1464386 C208.96818604 186.26658125 212.25439328 188.55892201 215.47265625 191.265625 C216.0553125 191.73226562 216.63796875 192.19890625 217.23828125 192.6796875 C221.36154514 196.04340278 221.36154514 196.04340278 222.47265625 198.265625 C222.4921875 200.25390625 222.4921875 200.25390625 222.28515625 202.578125 C222.20201172 203.71701172 222.20201172 203.71701172 222.1171875 204.87890625 C221.18452276 208.33259203 220.14093147 209.8253733 217.47265625 212.265625 C214.05062466 213.58927985 210.55974963 214.33588383 206.97265625 215.078125 C206.02261719 215.29404297 205.07257813 215.50996094 204.09375 215.73242188 C200.08118343 216.62128156 196.60578972 217.265625 192.47265625 217.265625 C196.04940342 220.98224497 199.82189176 224.24176694 203.91015625 227.390625 C204.51126221 227.85927979 205.11236816 228.32793457 205.73168945 228.81079102 C208.29476548 230.80850708 210.8644874 232.79741954 213.43945312 234.77978516 C214.73012275 235.77357498 216.01930012 236.76930626 217.30688477 237.76708984 C218.514748 238.70302075 219.7260258 239.63456659 220.94116211 240.56103516 C228.03590548 246.06613238 228.03590548 246.06613238 228.90625 250.44921875 C228.91288064 254.27509675 228.73814461 256.7457103 226.97265625 260.203125 C223.74953902 262.86219672 220.70073602 264.32324789 216.47265625 264.265625 C210.86379483 262.36957879 206.85014123 259.47822567 202.34765625 255.703125 C201.02430026 254.61873792 199.70006644 253.53542132 198.375 252.453125 C197.71870605 251.91429687 197.06241211 251.37546875 196.38623047 250.8203125 C193.60282668 248.55893009 190.76245168 246.37653278 187.91015625 244.203125 C181.59468871 239.37342103 175.33559794 234.47475586 169.09765625 229.54541016 C167.56094254 228.33515576 166.01700819 227.13408608 164.47265625 225.93359375 C163.58578125 225.23878906 162.69890625 224.54398438 161.78515625 223.828125 C160.63466797 222.93287109 160.63466797 222.93287109 159.4609375 222.01953125 C155.88468904 218.86484449 154.55867361 217.16880727 154.09765625 212.328125 C154.27341249 208.54585075 154.89878506 206.1716086 157.47265625 203.265625 C163.85347585 199.57892923 171.31462178 198.66546253 178.47265625 197.265625 C178.47265625 196.605625 178.47265625 195.945625 178.47265625 195.265625 C176.20569368 193.80872372 173.94154415 192.4629184 171.59765625 191.140625 C165.07188525 187.33935381 159.19388486 183.21761279 153.47265625 178.265625 C152.65410156 177.59144531 151.83554687 176.91726563 150.9921875 176.22265625 C132.06508537 160.11261118 122.0324469 136.34893683 111.60546875 114.34765625 C97.47889452 84.93486364 78.44854592 55.93706732 47.05078125 43.51171875 C36.33106576 39.77854272 26.39919737 37.78889301 15.03051758 37.68041992 C8.2474147 37.55043647 3.12368965 36.09167187 -1.84375 31.234375 C-2.93629548 30.08805477 -4.01826303 28.93156687 -5.08984375 27.765625 C-8.92723147 23.62032713 -12.14343324 20.37964636 -17.52734375 18.265625 C-20.42904226 18.40058772 -21.92426601 18.83485518 -24.27734375 20.515625 C-25.94251961 22.8468712 -26.39074321 24.39701375 -26.52734375 27.265625 C-23.94751924 33.7263062 -17.20193075 36.67675371 -11.57421875 40.18554688 C-5.8730876 43.89305817 -2.5991156 47.22538326 0.47265625 53.265625 C1.18325195 54.5815564 1.18325195 54.5815564 1.90820312 55.92407227 C3.49244534 58.89301666 5.01802204 61.88689009 6.53515625 64.890625 C7.05142578 65.88191406 7.56769531 66.87320313 8.09960938 67.89453125 C14.98569819 81.52635548 17.28661141 95.29158866 19.03515625 110.265625 C19.76422624 128.4241973 19.76422624 128.4241973 25.47265625 144.265625 C26.02953125 143.316875 26.58640625 142.368125 27.16015625 141.390625 C29.62637847 138.05789227 30.48202999 137.08188946 34.47265625 136.265625 C40.11551339 136.265625 40.11551339 136.265625 42.47265625 137.265625 C46.36689082 141.39679609 48.32587068 144.76431575 50.05078125 150.25390625 C50.48864511 151.60583232 50.92689165 152.95763449 51.36547852 154.30932617 C51.6972258 155.35617081 51.6972258 155.35617081 52.03567505 156.42416382 C62.74154752 189.99136139 80.50632196 214.81928658 112.27148438 231.44506836 C113.95957623 232.31039141 115.65346209 233.16452401 117.35351562 234.00610352 C118.12244141 234.39080811 118.89136719 234.7755127 119.68359375 235.171875 C120.70912354 235.67170898 120.70912354 235.67170898 121.75537109 236.18164062 C123.47265625 237.265625 123.47265625 237.265625 125.47265625 240.265625 C126.01867659 243.65669871 126.01893549 246.87436676 125.47265625 250.265625 C123.28242707 253.08986788 121.64248418 254.68071103 118.47265625 256.265625 C112.08485398 256.77390174 108.16670126 255.67878244 102.59765625 252.640625 C101.89858154 252.27308105 101.19950684 251.90553711 100.47924805 251.52685547 C98.46606432 250.45871152 96.46790912 249.36681581 94.47265625 248.265625 C93.08626953 247.51539063 93.08626953 247.51539063 91.671875 246.75 C80.29404576 240.26966518 70.88635624 232.24279032 62.47265625 222.265625 C61.16124363 220.84795168 59.84875334 219.43127445 58.53515625 218.015625 C49.7308332 208.03622298 43.01511315 197.34157413 37.47265625 185.265625 C37.24191406 185.80832031 37.01117188 186.35101563 36.7734375 186.91015625 C35.22920687 190.29769774 34.00475438 192.80543202 31.16015625 195.265625 C26.53342594 196.98719907 23.07542941 196.95313593 18.53125 195.00390625 C13.67907656 191.57479505 12.62750394 185.42323657 10.97265625 180.015625 C10.58956299 178.80922363 10.20646973 177.60282227 9.81176758 176.35986328 C2.99385904 154.51680101 -1.49264197 132.62376922 -4.33203125 109.9296875 C-4.4606958 108.90431885 -4.58936035 107.8789502 -4.72192383 106.82250977 C-4.95817886 104.89970418 -5.18536781 102.97575072 -5.40112305 101.05053711 C-6.62734394 90.79684222 -9.66676248 82.34383752 -14.65234375 73.328125 C-15.5526374 71.6741861 -16.45115604 70.01927941 -17.34765625 68.36328125 C-17.74227051 67.64664307 -18.13688477 66.93000488 -18.54345703 66.19165039 C-19.52734375 64.265625 -19.52734375 64.265625 -20.52734375 61.265625 C-22.19095094 60.59135996 -23.85854306 59.92693165 -25.52734375 59.265625 C-28.29492438 57.52553825 -30.90489949 55.59052359 -33.52734375 53.640625 C-34.22601563 53.14433594 -34.9246875 52.64804688 -35.64453125 52.13671875 C-42.2620446 47.22977017 -46.55677144 41.36446065 -48.52734375 33.265625 C-49.63713612 22.37417433 -48.2443508 13.57573032 -41.33984375 4.953125 C-30.80557701 -6.26223658 -12.87570303 -8.83587658 0 0 Z " fill="#56A0D7" transform="translate(165.52734375,121.734375)"/>
<path d="M0 0 C4.01684726 2.93915653 6.95784056 6.06102168 8.5625 10.875 C9.06489055 17.02928421 9.37335391 22.70312684 5.5625 27.875 C3.79418945 28.82299805 3.79418945 28.82299805 1.5625 28.875 C-0.48201321 27.34292035 -2.12282514 25.89066513 -3.89453125 24.08203125 C-4.40175217 23.57959396 -4.90897308 23.07715668 -5.43156433 22.55949402 C-6.50081939 21.49364209 -7.56378317 20.42144707 -8.62084961 19.34350586 C-10.24412737 17.69346944 -11.8923166 16.07177377 -13.54492188 14.45117188 C-14.57973199 13.41305773 -15.61299001 12.37339364 -16.64453125 11.33203125 C-17.14024124 10.84644241 -17.63595123 10.36085358 -18.14668274 9.86054993 C-19.50317383 8.45629883 -19.50317383 8.45629883 -21.4375 5.875 C-21.37402344 3.6418457 -21.37402344 3.6418457 -20.4375 1.875 C-14.55935003 -2.75626968 -6.84318263 -2.23958704 0 0 Z " fill="#56A1D6" transform="translate(216.4375,184.125)"/>
</svg>
